<?xml version="1.0" encoding="UTF-8" standalone="no"?>
<svg
   xmlns:dc="http://purl.org/dc/elements/1.1/"
   xmlns:cc="http://creativecommons.org/ns#"
   xmlns:rdf="http://www.w3.org/1999/02/22-rdf-syntax-ns#"
   xmlns:svg="http://www.w3.org/2000/svg"
   xmlns="http://www.w3.org/2000/svg"
   xmlns:sodipodi="http://sodipodi.sourceforge.net/DTD/sodipodi-0.dtd"
   xmlns:inkscape="http://www.inkscape.org/namespaces/inkscape"
   version="1.1"
   id="Ebene_1"
   x="0px"
   y="0px"
   viewBox="0 0 512 460"
   style="enable-background:new 0 0 512 460;"
   xml:space="preserve"
   sodipodi:docname="Logo.LeanScopeWhiteNav.svg"
   inkscape:version="1.0.2 (e86c870879, 2021-01-15, custom)"><metadata
   id="metadata35"><rdf:RDF><cc:Work
       rdf:about=""><dc:format>image/svg+xml</dc:format><dc:type
         rdf:resource="http://purl.org/dc/dcmitype/StillImage" /><dc:title></dc:title></cc:Work></rdf:RDF></metadata><defs
   id="defs33" /><sodipodi:namedview
   pagecolor="#ffffff"
   bordercolor="#666666"
   borderopacity="1"
   objecttolerance="10"
   gridtolerance="10"
   guidetolerance="10"
   inkscape:pageopacity="0"
   inkscape:pageshadow="2"
   inkscape:window-width="1920"
   inkscape:window-height="1052"
   id="namedview31"
   showgrid="false"
   inkscape:zoom="0.9673913"
   inkscape:cx="168.0578"
   inkscape:cy="265.06019"
   inkscape:window-x="-8"
   inkscape:window-y="-8"
   inkscape:window-maximized="1"
   inkscape:current-layer="Ebene_1" />
<style
   type="text/css"
   id="style2">
	.st0{fill:#FFFFFF;}
</style>
<g
   id="Layer_1">
</g>
<g
   id="Layer_32"
   transform="translate(0,40)">
	<path
   class="st0"
   d="M 0,0 V 384 H 512 V 0 Z m 13,13 h 487 v 358 l -487.4,0.1 z"
   id="path5" />
	<path
   class="st0"
   d="m 245.1,192.5 h 6.3 c 2.6,0 3.6,-0.7 4.9,-3.6 l 28.8,-61.2 28.5,61.2 c 1.6,2.9 2.3,3.6 4.9,3.6 h 7 c 1.6,0 2.6,-0.7 2.6,-1.6 0,-0.7 -0.3,-1.3 -0.7,-2 l -37.2,-78.1 c -2.3,-4.9 -2.9,-6.3 -4.7,-6.3 -1.7,0 -2.6,1.3 -4.9,6.3 l -37.1,78.1 c -0.3,0.7 -0.7,1.3 -0.7,2 -0.1,1.3 0.7,1.6 2.3,1.6 z"
   id="path7" />
	<path
   class="st0"
   d="m 155.5,181 h -36 c -1.3,0 -1.6,-0.3 -1.6,-1.3 v -69.8 c 0,-2 -0.7,-2.6 -2.6,-2.6 h -7 c -2,0 -2.6,0.7 -2.6,2.6 V 190 c 0,2 0.7,2.6 2.6,2.6 h 47.2 c 2,0 2.6,-0.7 2.6,-2.6 v -6.3 c 0,-2.1 -0.7,-2.7 -2.6,-2.7 z"
   id="path9" />
	<path
   class="st0"
   d="m 230.5,189.9 v -6 c 0,-2 -0.7,-2.6 -2.6,-2.6 h -42 c -1,0 -1.3,-0.3 -1.3,-1.3 v -21.7 h 24.3 c 1.9,0 2.9,-0.3 2.9,-1 v -9.7 c 0,-0.6 -1,-1 -2.9,-1 h -24.3 v -26.2 c -0.3,-1.3 0.3,-1.6 1.3,-1.6 h 42 c 2,0 2.6,-0.7 2.6,-2.6 v -6.3 c 0,-2 -0.7,-2.6 -2.6,-2.6 H 175 c -2,0 -2.6,0.7 -2.6,2.6 V 190 c 0,2 0.7,2.6 2.6,2.6 h 52.9 c 2,-0.1 2.6,-0.7 2.6,-2.7 z"
   id="path11" />
	<path
   class="st0"
   d="m 404.8,106.2 h -61.9 c -2,0 -2.6,0.7 -2.6,2.9 v 80.7 c 0,2 0.7,2.6 2.6,2.6 h 7 c 2,0 2.6,-0.7 2.6,-2.6 v -70.5 c 0,-1 0.7,-1.3 1.6,-1.3 h 39.7 c 1,0 1.3,0.3 1.3,1.3 v 70.1 c 0,2 0.7,2.6 2.6,2.6 h 7 c 2,0 2.6,-0.7 2.6,-2.6 v -80.7 c 0.3,-1.8 -0.5,-2.5 -2.5,-2.5 z"
   id="path13" />
	<path
   class="st0"
   d="m 125,245.7 c -8.7,-2.3 -12.9,-4.2 -12.9,-9.7 0,-5.4 4.5,-8.7 10.9,-8.7 5.7,0 10.3,2.3 14.4,5.4 0.6,0.4 1,0.6 1.3,0.6 0.4,0 0.9,-0.3 1.3,-0.9 l 2.5,-3.6 c 0.4,-0.4 0.7,-0.9 0.7,-1.3 0,-0.4 -0.3,-0.7 -0.9,-1.3 -5.2,-4.1 -11.5,-6.7 -19.2,-6.7 -11.2,0 -19.9,6.4 -19.9,17.2 0,10.2 7,14.1 18.2,17 9.7,2.5 13.4,4.5 13.4,9.7 0,5.5 -4.9,9 -12.8,9 -6,0 -11.2,-2.6 -15.4,-6 -0.4,-0.4 -0.9,-0.7 -1.3,-0.7 -0.4,0 -0.9,0.3 -1.3,0.9 l -2.5,3.5 c -0.4,0.6 -0.6,1 -0.6,1.5 0,0.4 0.3,0.9 0.9,1.5 5.2,4.2 11.9,7.3 19.9,7.3 12.6,0 21.7,-6.8 21.7,-17.6 0,-9.5 -5.9,-13.9 -18.4,-17.1 z"
   id="path15" />
	<path
   class="st0"
   d="m 209.4,266.1 c -0.4,-0.4 -0.7,-0.9 -1.3,-0.9 -0.4,0 -0.9,0.3 -1.5,0.7 -4.7,3.8 -10.3,6.1 -17,6.1 -12.2,0 -21.5,-9.6 -21.5,-22.4 0,-13.4 9.6,-22.5 21.5,-22.5 6.4,0 12.2,2.5 16.7,6 0.6,0.4 1,0.7 1.5,0.7 0.4,0 0.9,-0.3 1.3,-0.9 l 2.5,-3.3 c 0.3,-0.4 0.4,-0.9 0.4,-1.3 0,-0.4 -0.3,-0.9 -0.9,-1.3 -5.5,-4.7 -12.9,-7.8 -21.4,-7.8 -17.3,0 -30.5,13.1 -30.5,30.7 0,17.6 13.4,30.2 29.9,30.2 8.4,0 16,-3.1 21.8,-8 0.7,-0.6 1,-1 1,-1.5 0,-0.3 -0.1,-0.7 -0.4,-1.2 z"
   id="path17" />
	<path
   class="st0"
   d="m 328.8,220.1 h -16.3 c -1.3,0 -1.9,0.4 -1.9,1.9 v 55.2 c 0,1.5 0.4,1.9 1.9,1.9 h 4.7 c 1.3,0 1.9,-0.4 1.9,-1.9 v -16.7 c 0,-0.7 0.3,-0.9 1,-0.9 h 8 c 16,0 24.7,-7.3 24.7,-20.2 -0.2,-12.3 -7.7,-19.3 -24,-19.3 z m -0.6,31.6 h -8.1 c -0.7,0 -1,-0.3 -1,-1 v -21.5 c 0,-0.7 0.3,-0.9 1,-0.9 h 8.1 c 9.9,0 15.7,3.2 15.7,11.5 0,8.2 -6.1,11.9 -15.7,11.9 z"
   id="path19" />
	<path
   class="st0"
   d="m 405.2,271.1 h -24.4 c -0.7,0 -1,-0.3 -1,-0.9 v -15.8 c 0,-0.7 0.3,-0.9 1,-0.9 h 21.4 c 1.3,0 1.9,-0.4 1.9,-1.9 v -4.2 c 0,-1.5 -0.4,-1.9 -1.9,-1.9 h -21.4 c -0.7,0 -1,-0.3 -1,-1 v -15.4 c 0,-0.7 0.3,-0.9 1,-0.9 h 24.3 c 1.3,0 1.9,-0.4 1.9,-1.9 V 222 c 0,-1.5 -0.4,-1.9 -1.9,-1.9 h -31.8 c -1.3,0 -1.9,0.4 -1.9,1.9 v 55.2 c 0,1.5 0.4,1.9 1.9,1.9 h 32 c 1.3,0 1.9,-0.4 1.9,-1.9 v -4.4 c -0.1,-1.2 -0.5,-1.7 -2,-1.7 z"
   id="path21" />
	<g
   id="g27">
		<path
   class="st0"
   d="m 259,219.1 c -17.3,0 -30.5,13.2 -30.5,30.7 0,17.3 12.9,30.2 30.2,30.2 17.6,0 30.7,-13.1 30.7,-30.5 0,-17.3 -13,-30.4 -30.4,-30.4 z m -0.1,52.9 c -12.2,0 -21.7,-9.3 -21.7,-22.2 0,-13.2 9.7,-22.5 21.8,-22.5 12.1,0 21.8,9.2 21.8,22.4 0,12.9 -9.9,22.3 -21.9,22.3 z"
   id="path23" />
		<circle
   class="st0"
   cx="259"
   cy="249.60001"
   r="9.8999996"
   id="circle25" />
	</g>
</g>
<!-- <g>
	<path class="st0" d="M104.6,438.1v-29.8h18.1v2.9h-14.8v10.3h12.2v2.9h-12.2v10.8h14.8v2.9H104.6z"/>
	<path class="st0" d="M143.3,438.1h-10.6v-29.8h10.6c4.8,0,8.1,1.9,9.6,5.8c0.9,2.2,1.4,5.1,1.4,8.7c0,7.5-1.9,12.2-5.6,14.1
		C147.2,437.7,145.4,438.1,143.3,438.1z M150.9,422.8c0-5.7-1.3-9.3-3.8-10.7c-1-0.6-2.3-0.9-3.8-0.9H136v23.9h7.3
		C148.4,435.1,150.9,431,150.9,422.8z"/>
	<path class="st0" d="M167.8,429.1c0,4.3,2.3,6.5,7,6.5c2.4,0,4.2-0.5,5.4-1.5c1.2-1,1.8-2.7,1.8-4.9v-20.8h3.3V429
		c0,3.3-0.9,5.7-2.6,7.2c-1.8,1.5-4.4,2.2-7.8,2.2c-3.4,0-6-0.7-7.8-2.2c-1.7-1.5-2.6-3.9-2.6-7.2v-20.7h3.3V429.1z"/>
	<path class="st0" d="M214.7,437.6c-3,0.6-5.6,0.9-8,0.9s-4.3-0.3-5.7-1c-1.4-0.6-2.6-1.6-3.4-3c-0.8-1.4-1.3-2.9-1.6-4.7
		c-0.3-1.8-0.5-4-0.5-6.6c0-2.6,0.2-4.9,0.5-6.6c0.3-1.8,0.8-3.4,1.6-4.8c0.8-1.4,1.9-2.4,3.3-3c1.4-0.6,3.3-0.9,5.6-0.9
		c2.3,0,5,0.3,8.1,0.9l-0.1,2.8c-2.9-0.5-5.5-0.8-7.7-0.8c-3.2,0-5.2,0.9-6.3,2.8c-1,1.9-1.5,5.1-1.5,9.6c0,2.3,0.1,4.1,0.3,5.5
		c0.2,1.4,0.6,2.6,1.1,3.7c0.5,1.1,1.3,1.9,2.4,2.4c1,0.5,2.6,0.7,4.6,0.7s4.4-0.3,7.2-0.8L214.7,437.6z"/>
	<path class="st0" d="M221.8,438.1l8.2-29.8h7.2l8.2,29.8h-3.3l-2.1-7.7h-12.7l-2.2,7.7H221.8z M232.5,411.2l-4.5,16.3h11.3
		l-4.5-16.3H232.5z"/>
	<path class="st0" d="M249.3,411.3v-3h21.5v3h-9.1v26.8h-3.3v-26.8H249.3z"/>
	<path class="st0" d="M279.3,438.1v-29.8h3.3v29.8H279.3z"/>
	<path class="st0" d="M316.5,423.4c0,5.3-0.8,9.1-2.5,11.5s-4.8,3.6-9.2,3.6c-4.5,0-7.5-1.2-9.2-3.7c-1.7-2.4-2.5-6.3-2.5-11.5
		s0.9-9.1,2.6-11.7c1.7-2.5,4.8-3.8,9.2-3.8c4.4,0,7.4,1.3,9.2,3.8C315.7,414.2,316.5,418.1,316.5,423.4z M296.4,423.3
		c0,4.4,0.6,7.5,1.7,9.4c1.1,1.9,3.4,2.9,6.6,2.9c3.3,0,5.5-0.9,6.6-2.8c1.1-1.9,1.7-5,1.7-9.4s-0.6-7.6-1.8-9.6c-1.2-2-3.4-3-6.6-3
		c-3.2,0-5.4,1-6.6,3C297,415.8,296.4,419,296.4,423.3z"/>
	<path class="st0" d="M326.9,438.1v-29.8h6.2l11.4,26.8h0.9v-26.8h3.3v29.8h-6.1L331,411.2h-0.8v26.8H326.9z"/>
	<path class="st0" d="M357.7,438.1l8.2-29.8h7.2l8.2,29.8H378l-2.2-7.7h-12.7l-2.2,7.7H357.7z M368.3,411.2l-4.5,16.3h11.3
		l-4.5-16.3H368.3z"/>
	<path class="st0" d="M406.6,438.1h-16.4v-29.8h3.3v26.8h13.1V438.1z"/>
</g> -->
</svg>
