<svg xmlns="http://www.w3.org/2000/svg" width="21" height="20" viewBox="0 0 21 20" fill="none">
                            <g clip-path="url(#clip0_35_1389)">
                            <path d="M10.7071 0.292893C10.3166 -0.0976311 9.68342 -0.0976311 9.29289 0.292893L4.29289 5.29289C3.90237 5.68342 3.90237 6.31658 4.29289 6.70711C4.68342 7.09763 5.31658 7.09763 5.70711 6.70711L9 3.41421V13.0714C9 13.6237 9.44771 14.0714 10 14.0714C10.5523 14.0714 11 13.6237 11 13.0714V3.41421L14.2929 6.70711C14.6834 7.09763 15.3166 7.09763 15.7071 6.70711C16.0976 6.31658 16.0976 5.68342 15.7071 5.29289L10.7071 0.292893Z" fill="white"/>
                            <path d="M2 13C2 12.4477 1.55228 12 1 12C0.447715 12 0 12.4477 0 13V17C0 17.7957 0.316071 18.5587 0.87868 19.1213C1.44129 19.6839 2.20435 20 3 20H17C17.7957 20 18.5587 19.6839 19.1213 19.1213C19.6839 18.5587 20 17.7957 20 17V13C20 12.4477 19.5523 12 19 12C18.4477 12 18 12.4477 18 13V17C18 17.2652 17.8946 17.5196 17.7071 17.7071C17.5196 17.8946 17.2652 18 17 18H3C2.73478 18 2.48043 17.8946 2.29289 17.7071C2.10536 17.5196 2 17.2652 2 17V13Z" fill="white"/>
                            </g>
                            <defs>
                            <clipPath id="clip0_35_1389">
                            <rect width="20" height="20" fill="white" transform="translate(0.5)"/>
                            </clipPath>
                            </defs>
</svg>